<svg width="48" height="48" viewBox="0 0 48 48"  xmlns="http://www.w3.org/2000/svg">
<path d="M11.5551 10C11.1571 10.0001 10.7592 10.152 10.4556 10.4556C10.1519 10.7593 10 11.1572 9.99994 11.5552C10 11.9531 10.1519 12.3519 10.4556 12.6555L21.8001 24L10.857 34.9431C10.2495 35.5505 10.2495 36.5355 10.857 37.143C11.4645 37.7504 12.4494 37.7504 13.0569 37.143L23.9999 26.1999L34.943 37.143C35.5505 37.7504 36.5354 37.7504 37.1429 37.143C37.7504 36.5355 37.7504 35.5505 37.1429 34.9431L26.1998 24L37.5443 12.6555C37.8481 12.3518 37.9999 11.9537 37.9999 11.5556C37.9999 11.1575 37.8481 10.7594 37.5443 10.4556C37.2407 10.152 36.8422 10.0001 36.4442 10C36.0463 10.0001 35.6481 10.152 35.3444 10.4556L23.9999 21.8001L12.6554 10.4556C12.3518 10.152 11.9531 10.0001 11.5551 10Z" />
</svg>
