<svg width="48" height="48" viewBox="0 0 48 48" fill="none" xmlns="http://www.w3.org/2000/svg">
<path d="M32.6437 28.0519C32.6437 29.6269 33.0918 30.255 34.2637 30.255C36.8756 30.255 38.5387 26.9269 38.5387 21.3919C38.5387 12.9319 32.3737 8.88187 24.6768 8.88187C16.7587 8.88187 9.55681 14.1919 9.55681 24.2269C9.55681 33.8119 15.8568 39.0319 25.5318 39.0319C28.8168 39.0319 31.0218 38.6719 34.3949 37.5469L35.1187 40.56C31.7887 41.6419 28.2299 41.955 25.4868 41.955C12.7968 41.955 5.99994 34.98 5.99994 24.225C5.99994 13.38 13.8768 6 24.7218 6C36.0168 6 41.9999 12.75 41.9999 21.03C41.9999 28.05 39.7968 33.405 32.8668 33.405C29.7149 33.405 27.6468 32.145 27.3768 29.3531C26.5668 32.4581 24.4068 33.405 21.4799 33.405C17.5649 33.405 14.2799 30.3881 14.2799 24.315C14.2799 18.195 17.1618 14.415 22.3368 14.415C25.0818 14.415 26.7918 15.495 27.5531 17.205L28.8599 14.82H32.6399V28.0519H32.6437V28.0519ZM27.1106 22.1119C27.1106 19.6387 25.2637 18.6019 23.7337 18.6019C22.0687 18.6019 20.2256 19.95 20.2256 23.9119C20.2256 27.0619 21.6206 28.8169 23.7337 28.8169C25.2187 28.8169 27.1106 27.8719 27.1106 25.2619V22.1119Z" fill="black"/>
</svg>
