<svg width="48" height="48" viewBox="0 0 48 48"  xmlns="http://www.w3.org/2000/svg">
<path d="M23.9967 8C18.386 8 13.8934 10.5553 10.6228 13.5967C7.37309 16.6104 5.19967 20.2212 4.17198 22.7001C3.94284 23.2487 3.94284 23.8597 4.17198 24.4083C5.19967 26.8872 7.37309 30.498 10.6228 33.5117C13.8934 36.5531 18.386 39.1084 23.9967 39.1084C29.6073 39.1084 34.0999 36.5531 37.3705 33.5117C40.6202 30.4911 42.7936 26.8872 43.8283 24.4083C44.0574 23.8597 44.0574 23.2487 43.8283 22.7001C42.7936 20.2212 40.6202 16.6104 37.3705 13.5967C34.0999 10.5553 29.6073 8 23.9967 8ZM13.9975 23.5542C13.9975 20.9023 15.051 18.359 16.9262 16.4838C18.8014 14.6085 21.3447 13.5551 23.9967 13.5551C26.6486 13.5551 29.1919 14.6085 31.0671 16.4838C32.9423 18.359 33.9958 20.9023 33.9958 23.5542C33.9958 26.2061 32.9423 28.7495 31.0671 30.6247C29.1919 32.4999 26.6486 33.5533 23.9967 33.5533C21.3447 33.5533 18.8014 32.4999 16.9262 30.6247C15.051 28.7495 13.9975 26.2061 13.9975 23.5542ZM23.9967 19.1101C23.9967 21.5613 22.0038 23.5542 19.5526 23.5542C19.0596 23.5542 18.5874 23.4709 18.143 23.3251C17.7611 23.2001 17.3167 23.4362 17.3306 23.8389C17.3514 24.318 17.4208 24.7972 17.5528 25.2763C18.5041 28.8315 22.1635 30.9425 25.7187 29.9911C29.274 29.0398 31.3849 25.3804 30.4336 21.8252C29.6628 18.9435 27.1144 17.0062 24.2813 16.8881C23.8786 16.8742 23.6425 17.3117 23.7675 17.7005C23.9133 18.145 23.9967 18.6171 23.9967 19.1101Z" />
</svg>
