<svg width="48" height="48" viewBox="0 0 48 48"  xmlns="http://www.w3.org/2000/svg">
<path d="M36.8648 29.8218L32.3401 29.3052C31.8081 29.2427 31.2688 29.3016 30.7628 29.4775C30.2568 29.6534 29.7972 29.9416 29.4186 30.3206L26.1409 33.5983C21.0839 31.0264 16.9736 26.9161 14.4017 21.8591L17.6972 18.5635C18.4632 17.7976 18.8373 16.7287 18.7126 15.6421L18.196 11.153C18.095 10.284 17.678 9.48252 17.0243 8.90111C16.3706 8.31969 15.5259 7.99896 14.6511 8H11.5693C9.55634 8 7.88185 9.67449 8.00654 11.6874C8.95067 26.9004 21.1174 39.0493 36.3126 39.9935C38.3255 40.1182 40 38.4437 40 36.4307V33.3489C40.0178 31.5498 38.664 30.0356 36.8648 29.8218Z" />
</svg>
