<svg width="48" height="48" viewBox="0 0 48 48"  xmlns="http://www.w3.org/2000/svg">
<path fill-rule="evenodd" clip-rule="evenodd" d="M24.0001 44C35.0458 44 44.0001 35.0457 44.0001 24C44.0001 12.9543 35.0458 4 24.0001 4C12.9544 4 4.00006 12.9543 4.00006 24C4.00006 27.6679 4.98742 31.1051 6.71084 34.0605L4.00006 44L14.034 41.344C16.9681 43.0335 20.3712 44 24.0001 44ZM29.6401 26.3527C30.0976 26.5227 32.5301 27.7202 33.0226 27.9677C33.121 28.0169 33.213 28.0612 33.2982 28.1022C33.6415 28.2674 33.8744 28.3795 33.9726 28.5477C34.0976 28.7552 34.0976 29.7452 33.6876 30.9052C33.2701 32.0627 31.2926 33.1177 30.3426 33.2627C29.4876 33.3852 28.4151 33.4427 27.2276 33.0627C26.5051 32.8327 25.5801 32.5302 24.4051 32.0177C19.7339 29.998 16.5916 25.4654 16.0248 24.6479C15.9882 24.5951 15.9624 24.5578 15.9476 24.5377L15.9435 24.5323C15.6791 24.1808 13.9226 21.845 13.9226 19.4152C13.9226 17.1213 15.0449 15.9255 15.5584 15.3784C15.5917 15.343 15.6224 15.3103 15.6501 15.2802C15.816 15.0917 16.0192 14.9395 16.2468 14.8333C16.4744 14.727 16.7215 14.6689 16.9726 14.6627C17.3051 14.6627 17.6376 14.6627 17.9226 14.6802C17.9581 14.6816 17.995 14.6811 18.0331 14.6805C18.3224 14.6763 18.6816 14.671 19.0351 15.5302C19.2114 15.9463 19.4895 16.6224 19.7613 17.2834C20.1329 18.187 20.4929 19.0622 20.5651 19.2052C20.6876 19.4527 20.7651 19.7377 20.6026 20.0727C20.5792 20.1202 20.5574 20.1652 20.5366 20.2083C20.4128 20.4647 20.3216 20.6537 20.1076 20.8977C20.0154 21.0038 19.9195 21.1202 19.8242 21.236C19.6633 21.4313 19.5041 21.6246 19.3676 21.7627C19.1201 22.0102 18.8626 22.2752 19.1476 22.7702C19.4426 23.2627 20.4301 24.8877 21.9051 26.2002C23.4773 27.6081 24.8471 28.2047 25.5468 28.5094C25.6882 28.571 25.8022 28.6207 25.8851 28.6627C26.3801 28.9077 26.6751 28.8702 26.9601 28.5377C27.2451 28.2152 28.1951 27.0927 28.5276 26.6002C28.8526 26.1052 29.1851 26.1902 29.6401 26.3527Z" />
</svg>
