<svg width="668" height="716" viewBox="0 0 668 716" fill="none" xmlns="http://www.w3.org/2000/svg">
<mask id="mask0_823_330" style="mask-type:alpha" maskUnits="userSpaceOnUse" x="-135" y="-90" width="939" height="806">
<rect x="267.5" y="312.5" width="134" height="134" rx="13.5" stroke="black"/>
<rect x="267.5" y="-89.5" width="134" height="134" rx="13.5" stroke="black"/>
<rect x="267.5" y="178.5" width="134" height="134" rx="13.5" stroke="black"/>
<rect x="401.5" y="312.5" width="134" height="134" rx="13.5" stroke="black"/>
<rect x="401.5" y="-89.5" width="134" height="134" rx="13.5" stroke="black"/>
<rect x="267.5" y="446.5" width="134" height="134" rx="13.5" stroke="black"/>
<rect x="267.5" y="580.5" width="134" height="134" rx="13.5" stroke="black"/>
<rect x="267.5" y="44.5" width="134" height="134" rx="13.5" stroke="black"/>
<rect x="133.5" y="312.5" width="134" height="134" rx="13.5" stroke="black"/>
<rect x="133.5" y="-89.5" width="134" height="134" rx="13.5" stroke="black"/>
<rect x="133.5" y="178.5" width="134" height="134" rx="13.5" stroke="black"/>
<rect x="-0.5" y="179.5" width="134" height="134" rx="13.5" stroke="black"/>
<rect x="-0.5" y="313.5" width="134" height="134" rx="13.5" stroke="black"/>
<rect x="-0.5" y="-88.5" width="134" height="134" rx="13.5" stroke="black"/>
<rect x="-0.5" y="447.5" width="134" height="134" rx="13.5" stroke="black"/>
<rect x="-0.5" y="581.5" width="134" height="134" rx="13.5" stroke="black"/>
<rect x="-0.5" y="45.5" width="134" height="134" rx="13.5" stroke="black"/>
<rect x="133.5" y="446.5" width="134" height="134" rx="13.5" stroke="black"/>
<rect x="133.5" y="580.5" width="134" height="134" rx="13.5" stroke="black"/>
<rect x="133.5" y="44.5" width="134" height="134" rx="13.5" stroke="black"/>
<rect x="401.5" y="446.5" width="134" height="134" rx="13.5" stroke="black"/>
<rect x="401.5" y="580.5" width="134" height="134" rx="13.5" stroke="black"/>
<rect x="401.5" y="44.5" width="134" height="134" rx="13.5" stroke="black"/>
<rect x="401.5" y="178.5" width="134" height="134" rx="13.5" stroke="black"/>
<rect x="535.5" y="179.5" width="134" height="134" rx="13.5" stroke="black"/>
<rect x="535.5" y="313.5" width="134" height="134" rx="13.5" stroke="black"/>
<rect x="535.5" y="-88.5" width="134" height="134" rx="13.5" stroke="black"/>
<rect x="535.5" y="447.5" width="134" height="134" rx="13.5" stroke="black"/>
<rect x="535.5" y="581.5" width="134" height="134" rx="13.5" stroke="black"/>
<rect x="535.5" y="45.5" width="134" height="134" rx="13.5" stroke="black"/>
</mask>
<g mask="url(#mask0_823_330)">
<rect x="-110" y="-16" width="888" height="658" fill="url(#paint0_radial_823_330)" fill-opacity="0.2"/>
</g>
<defs>
<radialGradient id="paint0_radial_823_330" cx="0" cy="0" r="1" gradientUnits="userSpaceOnUse" gradientTransform="translate(334 264.5) rotate(90) scale(322 444)">
<stop offset="0.697917" stop-color="#D9D9D9"/>
<stop offset="0.890625" stop-color="#D9D9D9" stop-opacity="0.1"/>
</radialGradient>
</defs>
</svg>
