<svg viewBox="0 0 81 109" fill="none" xmlns="http://www.w3.org/2000/svg">
<path id="Vector 2" d="M66.8091 2C70.6768 4.42436 76.5664 16.3663 78.3276 26.9541C79.3184 32.9102 80.2513 47.3167 74.83 55.9529C71.1746 61.7759 64.1553 63.4187 57.8626 60.6489C52.6291 58.3452 49.5675 48.5832 49.5675 48.5832C49.5675 48.5832 45.1485 31.478 49.5332 25.4458C53.9179 19.4137 58.4921 22.9093 60.3306 26.9541C63.4334 33.7802 62.9063 46.9086 57.8626 55.9871C46.8135 75.8757 26.4287 103.783 1.71602 106.272M20.7724 76.9464C21.6756 84.5233 11.4092 96.7028 11.4092 96.7028C11.4092 96.7028 4.12065 104.349 1.71602 106.272M1.71602 106.272C1.12817 108.265 17.2377 103.615 17.2377 103.615C17.2377 103.615 26.0149 101.902 33.4913 104.421" stroke="black" stroke-width="3" stroke-linecap="round"/>
</svg>
