<svg width="86" height="80" viewBox="0 0 86 80" fill="none" xmlns="http://www.w3.org/2000/svg">
<g filter="url(#filter0_d_55_292)">
<path fill-rule="evenodd" clip-rule="evenodd" d="M39.9659 6.04493C55.227 5.48149 72.3024 10.1374 76.9639 24.5713C81.5884 38.8908 69.9497 51.8825 57.5681 60.5485C45.8707 68.7355 30.6275 73.428 19.0047 65.1371C7.23877 56.7441 5.7574 40.5875 10.5691 27.0226C15.0001 14.5312 26.6322 6.53721 39.9659 6.04493Z" fill="white"/>
<path d="M46.7333 48.5876L36.9041 38.7876C36.7874 38.6709 36.705 38.5445 36.6568 38.4084C36.6078 38.2723 36.5833 38.1265 36.5833 37.9709C36.5833 37.8154 36.6078 37.6695 36.6568 37.5334C36.705 37.3973 36.7874 37.2709 36.9041 37.1542L46.7333 27.3251C47.0055 27.0529 47.3458 26.9167 47.7541 26.9167C48.1624 26.9167 48.5124 27.0626 48.8041 27.3542C49.0958 27.6459 49.2416 27.9862 49.2416 28.3751C49.2416 28.764 49.0958 29.1042 48.8041 29.3959L40.2291 37.9709L48.8041 46.5459C49.0763 46.8181 49.2124 47.1534 49.2124 47.5516C49.2124 47.9506 49.0666 48.2959 48.7749 48.5876C48.4833 48.8792 48.143 49.0251 47.7541 49.0251C47.3652 49.0251 47.0249 48.8792 46.7333 48.5876Z" fill="#98DA8B"/>
</g>
<defs>
<filter id="filter0_d_55_292" x="0" y="0" width="86" height="79.4883" filterUnits="userSpaceOnUse" color-interpolation-filters="sRGB">
<feFlood flood-opacity="0" result="BackgroundImageFix"/>
<feColorMatrix in="SourceAlpha" type="matrix" values="0 0 0 0 0 0 0 0 0 0 0 0 0 0 0 0 0 0 127 0" result="hardAlpha"/>
<feOffset dy="2"/>
<feGaussianBlur stdDeviation="4"/>
<feComposite in2="hardAlpha" operator="out"/>
<feColorMatrix type="matrix" values="0 0 0 0 0 0 0 0 0 0 0 0 0 0 0 0 0 0 0.15 0"/>
<feBlend mode="normal" in2="BackgroundImageFix" result="effect1_dropShadow_55_292"/>
<feBlend mode="normal" in="SourceGraphic" in2="effect1_dropShadow_55_292" result="shape"/>
</filter>
</defs>
</svg>
