<svg width="1440" height="1024" viewBox="0 0 1440 1024" fill="none" xmlns="http://www.w3.org/2000/svg">
<mask id="mask0_1_49" style="mask-type:alpha" maskUnits="userSpaceOnUse" x="318" y="218" width="939" height="806">
<rect x="720.5" y="620.5" width="134" height="134" rx="13.5" stroke="black"/>
<rect x="720.5" y="218.5" width="134" height="134" rx="13.5" stroke="black"/>
<rect x="720.5" y="486.5" width="134" height="134" rx="13.5" stroke="black"/>
<rect x="854.5" y="620.5" width="134" height="134" rx="13.5" stroke="black"/>
<rect x="854.5" y="218.5" width="134" height="134" rx="13.5" stroke="black"/>
<rect x="720.5" y="754.5" width="134" height="134" rx="13.5" stroke="black"/>
<rect x="720.5" y="888.5" width="134" height="134" rx="13.5" stroke="black"/>
<rect x="720.5" y="352.5" width="134" height="134" rx="13.5" stroke="black"/>
<rect x="586.5" y="620.5" width="134" height="134" rx="13.5" stroke="black"/>
<rect x="586.5" y="218.5" width="134" height="134" rx="13.5" stroke="black"/>
<rect x="586.5" y="486.5" width="134" height="134" rx="13.5" stroke="black"/>
<rect x="452.5" y="487.5" width="134" height="134" rx="13.5" stroke="black"/>
<rect x="318.5" y="486.5" width="134" height="134" rx="13.5" stroke="black"/>
<rect x="452.5" y="621.5" width="134" height="134" rx="13.5" stroke="black"/>
<rect x="318.5" y="620.5" width="134" height="134" rx="13.5" stroke="black"/>
<rect x="452.5" y="219.5" width="134" height="134" rx="13.5" stroke="black"/>
<rect x="318.5" y="218.5" width="134" height="134" rx="13.5" stroke="black"/>
<rect x="452.5" y="755.5" width="134" height="134" rx="13.5" stroke="black"/>
<rect x="452.5" y="889.5" width="134" height="134" rx="13.5" stroke="black"/>
<rect x="318.5" y="754.5" width="134" height="134" rx="13.5" stroke="black"/>
<rect x="318.5" y="888.5" width="134" height="134" rx="13.5" stroke="black"/>
<rect x="452.5" y="353.5" width="134" height="134" rx="13.5" stroke="black"/>
<rect x="318.5" y="352.5" width="134" height="134" rx="13.5" stroke="black"/>
<rect x="586.5" y="754.5" width="134" height="134" rx="13.5" stroke="black"/>
<rect x="586.5" y="888.5" width="134" height="134" rx="13.5" stroke="black"/>
<rect x="586.5" y="352.5" width="134" height="134" rx="13.5" stroke="black"/>
<rect x="854.5" y="754.5" width="134" height="134" rx="13.5" stroke="black"/>
<rect x="854.5" y="888.5" width="134" height="134" rx="13.5" stroke="black"/>
<rect x="854.5" y="352.5" width="134" height="134" rx="13.5" stroke="black"/>
<rect x="854.5" y="486.5" width="134" height="134" rx="13.5" stroke="black"/>
<rect x="988.5" y="487.5" width="134" height="134" rx="13.5" stroke="black"/>
<rect x="1122.5" y="486.5" width="134" height="134" rx="13.5" stroke="black"/>
<rect x="988.5" y="621.5" width="134" height="134" rx="13.5" stroke="black"/>
<rect x="1122.5" y="620.5" width="134" height="134" rx="13.5" stroke="black"/>
<rect x="988.5" y="219.5" width="134" height="134" rx="13.5" stroke="black"/>
<rect x="1122.5" y="218.5" width="134" height="134" rx="13.5" stroke="black"/>
<rect x="988.5" y="755.5" width="134" height="134" rx="13.5" stroke="black"/>
<rect x="988.5" y="889.5" width="134" height="134" rx="13.5" stroke="black"/>
<rect x="1122.5" y="754.5" width="134" height="134" rx="13.5" stroke="black"/>
<rect x="1122.5" y="888.5" width="134" height="134" rx="13.5" stroke="black"/>
<rect x="988.5" y="353.5" width="134" height="134" rx="13.5" stroke="black"/>
<rect x="1122.5" y="352.5" width="134" height="134" rx="13.5" stroke="black"/>
</mask>
<g mask="url(#mask0_1_49)">
<rect x="355" y="366" width="888" height="658" fill="url(#paint0_radial_1_49)"/>
</g>
<line x1="51.5" y1="-1" x2="51.5" y2="1025" stroke="#D9D9D9"/>
<line x1="1390.5" y1="-1" x2="1390.5" y2="1025" stroke="#D9D9D9"/>
<line y1="81.5" x2="1440" y2="81.5" stroke="#D9D9D9"/>
<defs>
<radialGradient id="paint0_radial_1_49" cx="0" cy="0" r="1" gradientUnits="userSpaceOnUse" gradientTransform="translate(799 695) rotate(90) scale(650.388 597.853)">
<stop offset="0.552083" stop-color="#D9D9D9"/>
<stop offset="1" stop-color="#D9D9D9" stop-opacity="0.1"/>
</radialGradient>
</defs>
</svg>
