<svg width="48" height="48" viewBox="0 0 48 48" fill="none" xmlns="http://www.w3.org/2000/svg">
<g filter="url(#filter0_d_245_383)">
<path d="M5.50006 8.5785C5.50006 7.15425 6.68356 6 8.14381 6H38.8563C40.3166 6 41.5001 7.15425 41.5001 8.5785V39.4215C41.5001 40.8457 40.3166 42 38.8563 42H8.14381C6.68356 42 5.50006 40.8457 5.50006 39.4215V8.5785ZM16.6218 36.1365V19.8802H11.2196V36.1365H16.6218ZM13.9218 17.6595C15.8051 17.6595 16.9773 16.413 16.9773 14.8515C16.9436 13.2562 15.8073 12.0435 13.9578 12.0435C12.1083 12.0435 10.9001 13.2585 10.9001 14.8515C10.9001 16.413 12.0723 17.6595 13.8858 17.6595H13.9218ZM24.9648 36.1365V27.0578C24.9648 26.5718 25.0008 26.0857 25.1448 25.7393C25.5341 24.7695 26.4228 23.7638 27.9168 23.7638C29.8721 23.7638 30.6528 25.2533 30.6528 27.4403V36.1365H36.0551V26.8125C36.0551 21.8175 33.3911 19.4955 29.8361 19.4955C26.9696 19.4955 25.6848 21.0705 24.9648 22.1798V22.236H24.9288C24.9408 22.2172 24.9528 22.1985 24.9648 22.1798V19.8802H19.5648C19.6323 21.4058 19.5648 36.1365 19.5648 36.1365H24.9648Z" fill="white"/>
</g>
<defs>
<filter id="filter0_d_245_383" x="-2" y="-2" width="56" height="56" filterUnits="userSpaceOnUse" color-interpolation-filters="sRGB">
<feFlood flood-opacity="0" result="BackgroundImageFix"/>
<feColorMatrix in="SourceAlpha" type="matrix" values="0 0 0 0 0 0 0 0 0 0 0 0 0 0 0 0 0 0 127 0" result="hardAlpha"/>
<feOffset dx="2" dy="2"/>
<feGaussianBlur stdDeviation="2"/>
<feColorMatrix type="matrix" values="0 0 0 0 0 0 0 0 0 0 0 0 0 0 0 0 0 0 0.25 0"/>
<feBlend mode="normal" in2="BackgroundImageFix" result="effect1_dropShadow_245_383"/>
<feBlend mode="normal" in="SourceGraphic" in2="effect1_dropShadow_245_383" result="shape"/>
</filter>
</defs>
</svg>
