<svg width="49" height="49" viewBox="0 0 49 49" fill="none" xmlns="http://www.w3.org/2000/svg">
<g filter="url(#filter0_d_245_385)">
<path d="M24 17.5C22.2761 17.5 20.6228 18.1848 19.4038 19.4038C18.1848 20.6228 17.5 22.2761 17.5 24C17.5 25.7239 18.1848 27.3772 19.4038 28.5962C20.6228 29.8152 22.2761 30.5 24 30.5C25.7239 30.5 27.3772 29.8152 28.5962 28.5962C29.8152 27.3772 30.5 25.7239 30.5 24C30.5 22.2761 29.8152 20.6228 28.5962 19.4038C27.3772 18.1848 25.7239 17.5 24 17.5Z" fill="white"/>
<path fill-rule="evenodd" clip-rule="evenodd" d="M13.54 6.16401C20.4921 5.39341 27.508 5.39341 34.46 6.16401C38.258 6.58801 41.32 9.57801 41.766 13.39C42.5904 20.4393 42.5904 27.5607 41.766 34.61C41.32 38.422 38.258 41.412 34.462 41.838C27.5093 42.6088 20.4927 42.6088 13.54 41.838C9.74201 41.412 6.68001 38.422 6.23401 34.612C5.40946 27.562 5.40946 20.44 6.23401 13.39C6.68001 9.57801 9.74201 6.58801 13.54 6.16401ZM34 12C33.4696 12 32.9609 12.2107 32.5858 12.5858C32.2107 12.9609 32 13.4696 32 14C32 14.5304 32.2107 15.0391 32.5858 15.4142C32.9609 15.7893 33.4696 16 34 16C34.5304 16 35.0392 15.7893 35.4142 15.4142C35.7893 15.0391 36 14.5304 36 14C36 13.4696 35.7893 12.9609 35.4142 12.5858C35.0392 12.2107 34.5304 12 34 12ZM14.5 24C14.5 21.4805 15.5009 19.0641 17.2825 17.2825C19.0641 15.5009 21.4805 14.5 24 14.5C26.5196 14.5 28.9359 15.5009 30.7175 17.2825C32.4991 19.0641 33.5 21.4805 33.5 24C33.5 26.5196 32.4991 28.9359 30.7175 30.7175C28.9359 32.4991 26.5196 33.5 24 33.5C21.4805 33.5 19.0641 32.4991 17.2825 30.7175C15.5009 28.9359 14.5 26.5196 14.5 24Z" fill="white"/>
</g>
<defs>
<filter id="filter0_d_245_385" x="-2" y="-2" width="56" height="56" filterUnits="userSpaceOnUse" color-interpolation-filters="sRGB">
<feFlood flood-opacity="0" result="BackgroundImageFix"/>
<feColorMatrix in="SourceAlpha" type="matrix" values="0 0 0 0 0 0 0 0 0 0 0 0 0 0 0 0 0 0 127 0" result="hardAlpha"/>
<feOffset dx="2" dy="2"/>
<feGaussianBlur stdDeviation="2"/>
<feColorMatrix type="matrix" values="0 0 0 0 0 0 0 0 0 0 0 0 0 0 0 0 0 0 0.25 0"/>
<feBlend mode="normal" in2="BackgroundImageFix" result="effect1_dropShadow_245_385"/>
<feBlend mode="normal" in="SourceGraphic" in2="effect1_dropShadow_245_385" result="shape"/>
</filter>
</defs>
</svg>
