<svg width="32" height="32" viewBox="0 0 32 32" fill="none" xmlns="http://www.w3.org/2000/svg">
<path d="M6.33758 16.4672L10.2135 18.1638L21.3831 12.0703L14.6463 19.9299L24.3023 24.3268C24.4675 24.3991 24.6476 24.4306 24.8275 24.4186C25.0074 24.4066 25.1817 24.3515 25.3358 24.2579C25.4899 24.1643 25.6191 24.0349 25.7127 23.8808C25.8062 23.7267 25.8612 23.5523 25.8731 23.3724L26.9959 6.53045C27.0084 6.33552 26.97 6.14068 26.8843 5.96512C26.7987 5.78957 26.6688 5.63933 26.5075 5.52921C26.3461 5.41908 26.1589 5.35286 25.9642 5.33706C25.7695 5.32126 25.5741 5.35642 25.3971 5.43909L6.30951 14.4215C6.11481 14.5139 5.95073 14.6602 5.8368 14.8431C5.72286 15.0261 5.66387 15.2379 5.66682 15.4534C5.66978 15.6688 5.73457 15.8789 5.85348 16.0587C5.97239 16.2384 6.14042 16.3802 6.33758 16.4672ZM12.4007 26.6667L17.7632 24.0663L12.4007 21.5647V26.6667Z" fill="#F9F8F2"/>
</svg>
