<svg width="48" height="48" viewBox="0 0 48 48" fill="none" xmlns="http://www.w3.org/2000/svg">
<path d="M23.9999 17.5C22.276 17.5 20.6227 18.1848 19.4037 19.4038C18.1848 20.6228 17.4999 22.2761 17.4999 24C17.4999 25.7239 18.1848 27.3772 19.4037 28.5962C20.6227 29.8152 22.276 30.5 23.9999 30.5C25.7238 30.5 27.3771 29.8152 28.5961 28.5962C29.8151 27.3772 30.4999 25.7239 30.4999 24C30.4999 22.2761 29.8151 20.6228 28.5961 19.4038C27.3771 18.1848 25.7238 17.5 23.9999 17.5Z" fill="black"/>
<path fill-rule="evenodd" clip-rule="evenodd" d="M13.5399 6.16401C20.492 5.39341 27.5079 5.39341 34.4599 6.16401C38.2579 6.58801 41.3199 9.57801 41.7659 13.39C42.5904 20.4393 42.5904 27.5607 41.7659 34.61C41.3199 38.422 38.2579 41.412 34.4619 41.838C27.5092 42.6088 20.4926 42.6088 13.5399 41.838C9.74195 41.412 6.67995 38.422 6.23395 34.612C5.4094 27.562 5.4094 20.44 6.23395 13.39C6.67995 9.57801 9.74195 6.58801 13.5399 6.16401ZM33.9999 12C33.4695 12 32.9608 12.2107 32.5857 12.5858C32.2107 12.9609 31.9999 13.4696 31.9999 14C31.9999 14.5304 32.2107 15.0391 32.5857 15.4142C32.9608 15.7893 33.4695 16 33.9999 16C34.5304 16 35.0391 15.7893 35.4142 15.4142C35.7892 15.0391 35.9999 14.5304 35.9999 14C35.9999 13.4696 35.7892 12.9609 35.4142 12.5858C35.0391 12.2107 34.5304 12 33.9999 12ZM14.4999 24C14.4999 21.4805 15.5008 19.0641 17.2824 17.2825C19.064 15.5009 21.4804 14.5 23.9999 14.5C26.5195 14.5 28.9359 15.5009 30.7175 17.2825C32.4991 19.0641 33.4999 21.4805 33.4999 24C33.4999 26.5196 32.4991 28.9359 30.7175 30.7175C28.9359 32.4991 26.5195 33.5 23.9999 33.5C21.4804 33.5 19.064 32.4991 17.2824 30.7175C15.5008 28.9359 14.4999 26.5196 14.4999 24Z" fill="black"/>
</svg>
