<svg width="184" height="174" viewBox="0 0 184 174" fill="none" xmlns="http://www.w3.org/2000/svg">
<g filter="url(#filter0_i_1_126)">
<path d="M108.815 96.1901V94.24C108.815 94.24 102.323 94.3619 100.505 93.0212C98.6873 91.6805 97.5187 89.3647 97.5187 85.8301V74.7389C97.5187 74.7389 114.788 73.0325 120.241 67.9135C125.695 62.7944 127.253 54.5064 127.253 49.3874C127.253 48.2162 127.259 46.1404 127.265 43.8886C127.273 41.2193 127.281 38.3027 127.281 36.3521C127.281 34.1555 127.695 30.2445 130.871 30.2445C132.45 30.2445 134.913 30.2518 134.913 30.2518V27.6923C134.913 27.6923 131.537 27.5704 129.46 27.5704C127.382 27.5704 122.384 27.8751 119.852 30.2518C117.32 32.6285 115.697 39.1492 115.697 50.3624C115.697 61.5756 114.658 64.6226 111.672 67.4259C107.192 71.6313 97.5187 71.9356 97.5187 71.9356V39.7587C97.5187 39.5229 97.5183 39.2938 97.5178 39.0711C97.5106 35.6088 97.5066 33.6759 99.3365 31.9582C101.284 30.13 107.776 30.3737 107.776 30.3737V27.5704H75.8814V30.3737C75.8814 30.3737 82.3735 30.13 84.3212 31.9582C86.1511 33.6759 86.1471 35.6088 86.1399 39.0711C86.1395 39.2938 86.139 39.5229 86.139 39.7587V71.9356C86.139 71.9356 76.4662 71.6313 71.9861 67.4259C68.9998 64.6226 67.961 61.5756 67.961 50.3624C67.961 39.1493 66.338 32.6286 63.8061 30.2519C61.2741 27.8752 56.2752 27.5705 54.1977 27.5705C52.1202 27.5705 48.7443 27.6923 48.7443 27.6923V30.2519C48.7443 30.2519 51.208 30.2445 52.7871 30.2445C55.963 30.2445 56.3765 34.1555 56.3765 36.3521C56.3765 38.3028 56.3849 41.2194 56.3926 43.8886C56.3991 46.1404 56.405 48.2162 56.405 49.3874C56.405 54.5064 57.9632 62.7944 63.4165 67.9135C68.8699 73.0325 86.139 74.7389 86.139 74.7389V85.8302C86.139 89.3647 84.9704 91.6805 83.1526 93.0212C81.3348 94.3619 74.8427 94.24 74.8427 94.24V96.1902L108.815 96.1901Z" fill="#66CD5B"/>
</g>
<g filter="url(#filter1_i_1_126)">
<path d="M14.4596 83.1515C3.50177 68.9417 6.4901 52.9496 9.4944 46.6002C9.70297 47.5128 9.90584 48.5 10.1243 49.563C11.3483 55.5189 13.0616 63.8559 19.0083 74.8046C26.6763 88.9226 35.9075 93.0124 43.08 96.1902C43.5333 96.391 43.9783 96.5881 44.4142 96.7839C39.0361 98.1942 24.9439 96.7475 14.4596 83.1515Z" fill="#66CD5B"/>
<path d="M15.9166 103.769C-1.5236 87.7275 -1.82318 63.2685 1.93659 56.7227C11.4434 113.229 50.4949 98.1637 49.2355 96.9844C37.8032 90.4806 34.5944 78.4478 34.419 73.2444C36.2748 75.8001 41.3686 80.3862 47.9205 83.1753C48.9516 83.6142 50.078 84.0323 51.2601 84.471C57.1935 86.673 64.5303 89.3957 68.2516 97.8915C72.7144 108.08 83.5513 146.509 83.5513 146.509C63.2189 124.175 48.4187 118.889 36.2062 114.527C28.6919 111.843 22.1573 109.509 15.9166 103.769Z" fill="#66CD5B"/>
<path d="M17.8477 51.9824C17.3819 56.4422 18.6743 65.7292 22.7793 73.3274C26.7391 80.6569 34.7746 87.2462 37.5802 89.2294C35.6338 87.7921 33.4272 81.1441 32.0382 76.9593C31.3938 75.0179 30.9254 73.6067 30.7405 73.4916C27.8698 71.7057 19.7439 62.265 17.8477 51.9824Z" fill="#66CD5B"/>
</g>
<g filter="url(#filter2_i_1_126)">
<path d="M169.045 83.1515C180.003 68.9417 177.015 52.9496 174.011 46.6002C173.802 47.5128 173.599 48.5 173.381 49.563C172.157 55.5189 170.443 63.8559 164.497 74.8046C156.829 88.9226 147.597 93.0124 140.425 96.1902C139.972 96.391 139.527 96.5881 139.091 96.7839C144.469 98.1942 158.561 96.7475 169.045 83.1515Z" fill="#66CD5B"/>
<path d="M167.588 103.769C185.029 87.7275 185.328 63.2685 181.568 56.7227C172.061 113.229 133.01 98.1637 134.269 96.9844C145.702 90.4806 148.911 78.4478 149.086 73.2444C147.23 75.8001 142.136 80.3862 135.584 83.1753C134.553 83.6142 133.427 84.0323 132.245 84.471C126.311 86.673 118.975 89.3957 115.253 97.8915C110.79 108.08 99.9536 146.509 99.9536 146.509C120.286 124.175 135.086 118.889 147.299 114.527C154.813 111.843 161.348 109.509 167.588 103.769Z" fill="#66CD5B"/>
<path d="M165.657 51.9824C166.123 56.4422 164.831 65.7292 160.726 73.3274C156.766 80.6569 148.73 87.2462 145.925 89.2294C147.871 87.7921 150.078 81.1441 151.467 76.9593C152.111 75.0179 152.58 73.6067 152.764 73.4916C155.635 71.7057 163.761 62.265 165.657 51.9824Z" fill="#66CD5B"/>
</g>
<defs>
<filter id="filter0_i_1_126" x="46.7643" y="27.5704" width="88.149" height="72.5887" filterUnits="userSpaceOnUse" color-interpolation-filters="sRGB">
<feFlood flood-opacity="0" result="BackgroundImageFix"/>
<feBlend mode="normal" in="SourceGraphic" in2="BackgroundImageFix" result="shape"/>
<feColorMatrix in="SourceAlpha" type="matrix" values="0 0 0 0 0 0 0 0 0 0 0 0 0 0 0 0 0 0 127 0" result="hardAlpha"/>
<feOffset dx="-1.98" dy="3.969"/>
<feGaussianBlur stdDeviation="1.9845"/>
<feComposite in2="hardAlpha" operator="arithmetic" k2="-1" k3="1"/>
<feColorMatrix type="matrix" values="0 0 0 0 0 0 0 0 0 0 0 0 0 0 0 0 0 0 0.375 0"/>
<feBlend mode="normal" in2="shape" result="effect1_innerShadow_1_126"/>
</filter>
<filter id="filter1_i_1_126" x="-1.98" y="46.6002" width="85.5313" height="103.878" filterUnits="userSpaceOnUse" color-interpolation-filters="sRGB">
<feFlood flood-opacity="0" result="BackgroundImageFix"/>
<feBlend mode="normal" in="SourceGraphic" in2="BackgroundImageFix" result="shape"/>
<feColorMatrix in="SourceAlpha" type="matrix" values="0 0 0 0 0 0 0 0 0 0 0 0 0 0 0 0 0 0 127 0" result="hardAlpha"/>
<feOffset dx="-1.98" dy="3.969"/>
<feGaussianBlur stdDeviation="1.9845"/>
<feComposite in2="hardAlpha" operator="arithmetic" k2="-1" k3="1"/>
<feColorMatrix type="matrix" values="0 0 0 0 0 0 0 0 0 0 0 0 0 0 0 0 0 0 0.375 0"/>
<feBlend mode="normal" in2="shape" result="effect1_innerShadow_1_126"/>
</filter>
<filter id="filter2_i_1_126" x="97.9736" y="46.6002" width="85.5313" height="103.878" filterUnits="userSpaceOnUse" color-interpolation-filters="sRGB">
<feFlood flood-opacity="0" result="BackgroundImageFix"/>
<feBlend mode="normal" in="SourceGraphic" in2="BackgroundImageFix" result="shape"/>
<feColorMatrix in="SourceAlpha" type="matrix" values="0 0 0 0 0 0 0 0 0 0 0 0 0 0 0 0 0 0 127 0" result="hardAlpha"/>
<feOffset dx="-1.98" dy="3.969"/>
<feGaussianBlur stdDeviation="1.9845"/>
<feComposite in2="hardAlpha" operator="arithmetic" k2="-1" k3="1"/>
<feColorMatrix type="matrix" values="0 0 0 0 0 0 0 0 0 0 0 0 0 0 0 0 0 0 0.375 0"/>
<feBlend mode="normal" in2="shape" result="effect1_innerShadow_1_126"/>
</filter>
</defs>
</svg>
